<?xml version="1.0" standalone="no"?>
<!DOCTYPE svg PUBLIC "-//W3C//DTD SVG 20010904//EN"
 "http://www.w3.org/TR/2001/REC-SVG-20010904/DTD/svg10.dtd">
<svg version="1.0" xmlns="http://www.w3.org/2000/svg"
 width="1085.000000pt" height="1085.000000pt" viewBox="0 0 1085.000000 1085.000000"
 preserveAspectRatio="xMidYMid meet">
<metadata>
Created by potrace 1.14, written by Peter Selinger 2001-2017
</metadata>
<g transform="translate(0.000000,1085.000000) scale(0.100000,-0.100000)"
fill="#000000" stroke="none">
<path d="M5220 10802 c0 -7 -4 -10 -10 -7 -5 3 -10 0 -10 -7 0 -10 -2 -10 -9
1 -7 10 -13 11 -30 2 -16 -9 -21 -9 -21 0 0 8 -4 8 -15 -1 -11 -9 -15 -9 -15
-1 0 9 -5 9 -20 1 -15 -8 -20 -8 -20 1 0 8 -5 7 -17 -2 -15 -12 -16 -12 -8 1
7 12 6 13 -6 3 -8 -6 -27 -10 -42 -9 -15 2 -27 -1 -27 -7 0 -5 -7 -4 -15 3
-12 10 -15 10 -15 -1 0 -11 -2 -11 -10 1 -6 9 -10 10 -10 3 0 -6 -9 -10 -20
-8 -11 2 -20 -1 -20 -6 0 -6 -6 -7 -12 -3 -21 13 -48 11 -60 -3 -9 -11 -13
-12 -19 -1 -7 10 -9 10 -9 1 0 -9 -7 -10 -25 -3 -17 6 -28 6 -37 -3 -16 -14
-48 -18 -48 -6 0 5 -11 2 -26 -7 -18 -13 -28 -14 -36 -6 -8 8 -15 7 -24 -6
-10 -12 -13 -13 -14 -3 0 11 -3 11 -15 1 -12 -10 -15 -10 -15 1 0 12 -2 12 -9
0 -5 -8 -18 -12 -30 -8 -12 3 -24 1 -27 -4 -3 -5 -10 -7 -15 -4 -5 4 -9 2 -9
-3 0 -5 -12 -7 -26 -4 -20 4 -25 2 -19 -8 6 -10 3 -10 -11 -2 -14 8 -21 6 -31
-6 -8 -12 -12 -13 -13 -4 0 9 -5 10 -17 4 -10 -5 -24 -7 -32 -4 -8 2 -11 0 -8
-5 3 -5 -3 -10 -14 -10 -11 -1 -17 3 -13 9 4 5 -5 2 -19 -7 -15 -9 -31 -14
-37 -10 -5 3 -10 1 -10 -5 0 -6 -4 -8 -10 -5 -5 3 -18 2 -27 -3 -10 -6 -34
-12 -53 -15 -19 -3 -47 -10 -62 -16 -16 -6 -28 -8 -28 -5 0 4 -8 0 -17 -7 -15
-12 -16 -12 -8 1 8 13 6 13 -8 2 -9 -8 -21 -11 -27 -7 -5 3 -10 1 -10 -5 0 -7
-7 -9 -16 -6 -8 3 -12 2 -9 -4 3 -6 -5 -10 -18 -10 -14 0 -43 -6 -65 -14 -22
-8 -43 -12 -46 -9 -3 4 -6 1 -6 -5 0 -7 -9 -12 -20 -12 -11 0 -20 -4 -20 -8 0
-4 -8 -8 -17 -9 -10 -1 -25 -3 -33 -6 -8 -2 -30 -8 -47 -12 -18 -4 -33 -11
-33 -16 0 -5 -7 -6 -15 -3 -8 4 -15 1 -15 -5 0 -6 -5 -11 -11 -11 -5 0 -7 6
-4 13 4 6 1 5 -7 -3 -7 -8 -22 -17 -33 -18 -11 -2 -24 -7 -30 -11 -5 -4 -29
-13 -52 -21 -24 -7 -43 -16 -43 -20 0 -4 -10 -7 -22 -6 -13 1 -34 -5 -48 -15
-14 -9 -31 -14 -37 -12 -7 3 -13 0 -13 -7 0 -6 -4 -9 -9 -5 -5 3 -16 -2 -25
-11 -9 -8 -20 -13 -25 -10 -5 3 -14 -1 -21 -9 -7 -8 -20 -15 -29 -15 -22 0
-71 -23 -71 -33 0 -5 -4 -5 -10 -2 -5 3 -10 1 -10 -5 0 -6 -4 -9 -9 -5 -5 3
-17 -2 -25 -11 -9 -8 -16 -12 -16 -8 0 3 -6 1 -13 -5 -8 -6 -17 -8 -20 -4 -4
3 -7 0 -7 -7 0 -7 -3 -10 -7 -7 -3 4 -15 0 -25 -10 -10 -9 -18 -12 -18 -8 0 4
-10 0 -22 -11 -14 -12 -19 -14 -13 -4 4 8 -2 5 -14 -8 -12 -12 -26 -20 -32
-17 -5 4 -9 1 -9 -4 0 -6 -9 -11 -20 -11 -11 0 -20 -4 -20 -10 0 -5 -7 -10
-15 -10 -8 0 -15 -5 -15 -12 0 -6 -3 -8 -7 -5 -3 4 -13 1 -21 -6 -13 -10 -14
-9 -7 3 4 8 -2 6 -13 -5 -34 -32 -52 -46 -52 -40 0 7 -88 -42 -112 -63 -10 -8
-18 -12 -18 -8 0 4 -10 -2 -22 -13 -11 -11 -24 -18 -28 -16 -4 3 -13 -2 -20
-10 -7 -8 -19 -15 -26 -15 -8 0 -14 -4 -14 -10 0 -5 -5 -10 -11 -10 -7 0 -18
-8 -26 -17 -10 -12 -12 -13 -8 -3 4 8 -1 6 -10 -5 -9 -11 -21 -19 -26 -17 -5
1 -12 -5 -15 -13 -3 -8 -10 -12 -15 -9 -5 3 -9 0 -9 -5 0 -6 -6 -11 -14 -11
-8 0 -21 -9 -29 -20 -8 -11 -17 -17 -21 -13 -3 4 -13 -2 -21 -13 -8 -10 -15
-15 -15 -10 0 4 -9 -2 -20 -15 -10 -13 -19 -20 -20 -16 0 4 -12 -5 -26 -20
-14 -15 -29 -28 -32 -27 -8 1 -65 -41 -97 -72 -12 -11 -28 -18 -35 -16 -7 3
-11 1 -8 -4 3 -5 -3 -17 -14 -26 -10 -10 -18 -16 -18 -13 0 3 -10 -4 -23 -14
-12 -11 -33 -29 -46 -40 -13 -12 -28 -21 -33 -21 -5 0 -7 -3 -5 -7 5 -9 -29
-43 -36 -37 -3 3 -14 -7 -26 -22 -11 -15 -21 -23 -21 -19 0 4 -10 -5 -22 -21
-26 -33 -39 -44 -49 -39 -3 3 -12 -7 -19 -20 -7 -13 -17 -22 -21 -20 -4 3 -10
-4 -14 -15 -3 -11 -14 -20 -22 -20 -9 0 -14 -3 -11 -6 3 -3 -10 -20 -29 -37
-19 -18 -42 -40 -51 -51 -10 -10 -35 -37 -57 -59 -22 -23 -33 -37 -25 -33 8 5
-5 -10 -30 -32 -25 -22 -45 -45 -45 -50 0 -6 -24 -34 -53 -62 -29 -29 -51 -54
-49 -56 3 -3 -7 -17 -22 -32 -35 -37 -72 -82 -67 -82 5 0 -25 -37 -57 -71 -9
-10 -14 -19 -10 -19 5 0 0 -5 -9 -11 -10 -5 -18 -14 -18 -19 0 -9 -44 -72 -86
-123 -8 -9 -14 -22 -14 -27 0 -6 -4 -10 -10 -10 -5 0 -10 -6 -10 -13 0 -8 -9
-22 -20 -32 -11 -10 -18 -20 -16 -22 4 -4 -28 -57 -59 -98 -8 -10 -15 -23 -15
-28 0 -5 -7 -15 -16 -24 -8 -9 -13 -22 -10 -30 3 -8 1 -11 -4 -8 -6 3 -13 -2
-17 -12 -4 -10 -10 -21 -15 -24 -5 -3 -10 -15 -11 -27 0 -11 -5 -18 -9 -16 -4
3 -8 0 -8 -5 0 -19 -3 -25 -22 -45 -9 -10 -15 -22 -13 -26 3 -4 -7 -20 -20
-36 -14 -16 -23 -34 -21 -41 3 -6 -2 -14 -11 -17 -9 -4 -13 -9 -10 -13 4 -3
-1 -12 -11 -20 -9 -8 -11 -11 -3 -8 9 5 8 0 -4 -18 -9 -15 -14 -31 -10 -37 3
-5 -1 -10 -9 -10 -9 0 -15 -3 -15 -7 4 -22 -2 -33 -13 -27 -8 5 -9 2 -5 -9 3
-10 3 -17 -2 -17 -4 0 -14 -18 -21 -40 -7 -22 -17 -40 -22 -40 -5 0 -6 -10 -3
-21 5 -16 4 -19 -6 -14 -9 6 -11 3 -6 -8 3 -10 3 -17 -1 -17 -4 0 -16 -14 -26
-31 -13 -22 -14 -29 -5 -24 8 5 7 0 -4 -12 -9 -11 -14 -23 -10 -26 3 -4 1 -7
-5 -7 -7 0 -11 -3 -10 -7 1 -5 -3 -18 -10 -29 -6 -12 -8 -24 -5 -28 3 -3 0 -6
-7 -6 -7 0 -11 -3 -7 -6 3 -3 -3 -25 -13 -49 -10 -24 -16 -46 -13 -49 4 -3 2
-6 -4 -6 -9 0 -24 -46 -22 -67 0 -3 -6 -10 -15 -15 -8 -5 -13 -15 -10 -23 4
-8 1 -15 -6 -15 -6 0 -9 -4 -6 -9 4 -5 -3 -31 -15 -58 -11 -26 -21 -56 -22
-65 -1 -10 -5 -18 -9 -18 -4 0 -8 -9 -8 -20 0 -11 -6 -20 -12 -20 -9 0 -8 -4
2 -10 13 -9 13 -10 0 -10 -12 0 -13 -2 -1 -9 11 -7 10 -11 -5 -20 -11 -6 -15
-11 -10 -11 5 0 2 -8 -5 -17 -12 -15 -12 -16 1 -8 12 7 13 6 3 -6 -6 -8 -13
-23 -15 -34 -1 -11 -6 -22 -9 -25 -4 -3 -9 -18 -10 -35 -2 -16 -9 -41 -16 -54
-7 -14 -10 -28 -7 -33 3 -4 -1 -8 -8 -8 -10 0 -10 -2 1 -9 9 -6 10 -11 2 -15
-6 -4 -9 -12 -6 -17 4 -5 2 -9 -4 -9 -5 0 -8 -9 -6 -20 2 -11 -1 -20 -7 -20
-6 0 -8 -3 -5 -6 3 -4 2 -16 -4 -27 -9 -15 -8 -18 3 -11 10 6 11 5 1 -8 -7 -8
-10 -18 -6 -21 3 -4 1 -7 -5 -7 -6 0 -9 -9 -7 -20 2 -11 0 -20 -4 -20 -5 0 -7
-11 -6 -25 2 -14 -1 -25 -5 -25 -5 0 -7 -8 -5 -19 2 -10 -2 -30 -9 -43 -9 -18
-10 -31 -3 -43 7 -14 6 -16 -3 -10 -10 6 -12 1 -8 -19 3 -14 1 -26 -4 -26 -6
0 -8 -6 -5 -14 3 -7 0 -19 -6 -25 -8 -8 -8 -11 2 -11 9 0 8 -6 -3 -22 -9 -12
-16 -27 -16 -33 0 -5 5 -3 10 5 6 9 10 10 10 3 0 -6 -5 -15 -10 -18 -6 -4 -8
-11 -5 -16 4 -5 0 -9 -7 -9 -10 0 -10 -2 1 -9 8 -5 10 -14 6 -21 -5 -7 -9 -23
-11 -34 -4 -39 -13 -76 -19 -86 -3 -5 -1 -10 6 -10 9 0 9 -3 0 -14 -9 -11 -9
-15 1 -19 11 -4 10 -6 0 -6 -7 -1 -10 -5 -7 -11 3 -5 1 -10 -5 -10 -7 0 -8 -6
0 -19 7 -14 6 -21 -3 -24 -9 -4 -8 -6 2 -6 11 -1 11 -4 1 -16 -7 -8 -9 -15 -5
-15 4 0 2 -7 -5 -15 -10 -12 -10 -15 0 -15 10 0 10 -3 0 -15 -10 -12 -10 -15
0 -15 10 0 10 -3 1 -14 -9 -11 -9 -15 1 -19 9 -4 10 -6 1 -6 -7 -1 -10 -8 -7
-16 4 -8 1 -15 -5 -15 -6 0 -11 -5 -11 -11 0 -5 5 -7 12 -3 6 4 8 3 5 -3 -4
-6 -7 -39 -8 -74 -1 -35 -7 -67 -13 -71 -7 -5 -7 -8 3 -8 11 0 11 -3 1 -15 -9
-11 -9 -15 -1 -15 7 0 9 -5 4 -12 -11 -18 -10 -42 2 -50 6 -5 5 -11 -4 -17
-10 -6 -10 -10 -1 -16 9 -6 9 -10 -1 -16 -12 -7 -12 -9 0 -9 11 0 11 -3 1 -15
-10 -12 -10 -15 0 -15 10 0 10 -3 1 -14 -9 -11 -9 -15 1 -19 10 -4 10 -6 -1
-6 -11 -1 -11 -4 -1 -16 9 -11 9 -15 1 -15 -8 0 -9 -5 -2 -18 7 -13 6 -23 -1
-30 -9 -9 -9 -12 1 -12 11 0 11 -3 0 -17 -10 -11 -10 -14 -1 -9 6 4 12 2 12
-3 0 -6 -5 -11 -11 -11 -8 0 -8 -5 1 -15 10 -12 10 -15 -1 -15 -12 0 -12 -2 0
-9 9 -6 10 -10 2 -16 -9 -5 -9 -11 1 -23 11 -13 11 -14 -1 -7 -10 6 -12 4 -6
-5 5 -7 9 -28 10 -46 2 -18 6 -37 9 -43 4 -6 2 -11 -4 -11 -6 0 -8 -5 -4 -12
4 -6 6 -34 5 -61 -1 -32 2 -47 8 -42 12 7 15 -8 4 -19 -12 -11 -12 -36 0 -36
8 0 8 -3 -1 -12 -8 -8 -8 -17 -1 -30 6 -11 9 -32 7 -47 -1 -16 2 -35 7 -42 12
-16 13 -39 2 -56 -5 -8 -3 -13 4 -13 8 0 8 -4 1 -13 -7 -8 -7 -17 2 -29 7 -9
11 -30 10 -47 -1 -17 3 -31 9 -31 8 0 7 -4 -1 -12 -9 -9 -8 -16 5 -30 13 -14
13 -18 2 -18 -11 0 -11 -2 1 -10 12 -8 12 -10 1 -10 -11 0 -11 -3 -1 -15 6 -8
10 -20 7 -27 -2 -7 2 -26 10 -42 8 -15 10 -25 4 -22 -14 9 -1 -26 13 -36 6 -4
5 -12 -3 -22 -10 -12 -10 -16 -2 -16 7 0 10 -4 7 -8 -3 -5 1 -20 9 -35 10 -20
11 -27 2 -27 -7 0 -6 -4 3 -10 8 -5 11 -10 6 -10 -5 0 -2 -8 5 -17 12 -14 12
-15 1 -9 -11 7 -12 4 -3 -11 6 -11 7 -23 4 -27 -3 -3 -2 -6 4 -6 5 0 10 -6 11
-12 6 -62 11 -87 21 -112 6 -16 9 -31 6 -34 -3 -3 2 -14 12 -24 11 -13 12 -18
3 -18 -9 0 -10 -3 -1 -13 6 -8 8 -17 4 -20 -3 -4 -2 -7 4 -7 6 0 14 -7 17 -16
3 -8 2 -12 -4 -9 -6 3 -10 1 -10 -4 0 -6 5 -11 11 -11 6 0 9 -7 5 -15 -3 -8
-2 -15 2 -15 4 0 8 -8 9 -18 3 -33 8 -47 23 -59 12 -10 13 -12 1 -13 -11 0
-11 -4 2 -18 10 -10 14 -22 10 -25 -3 -4 0 -7 8 -7 11 0 11 -2 1 -9 -11 -6
-10 -11 3 -25 9 -9 14 -16 11 -16 -3 0 -1 -12 5 -28 6 -15 12 -34 14 -42 8
-33 31 -85 40 -92 6 -4 6 -8 1 -8 -5 0 -1 -10 10 -22 10 -12 13 -18 7 -14 -7
4 -13 2 -13 -3 0 -6 5 -11 10 -11 6 0 10 -9 10 -20 0 -11 5 -20 10 -20 6 0 10
-11 10 -25 0 -14 4 -25 8 -25 4 0 9 -12 10 -27 1 -15 7 -32 12 -37 6 -6 10
-18 10 -28 0 -10 5 -18 11 -18 6 0 8 -7 5 -15 -3 -9 1 -18 9 -21 8 -4 15 -17
15 -30 0 -13 5 -24 11 -24 5 0 7 -5 4 -10 -3 -6 0 -13 9 -16 8 -3 12 -12 10
-19 -3 -7 0 -16 5 -20 6 -3 9 -11 6 -16 -4 -5 -1 -9 5 -9 6 0 8 -4 5 -10 -3
-5 2 -10 12 -10 15 0 16 -2 3 -10 -10 -6 -11 -10 -2 -10 6 0 12 -9 12 -20 0
-11 5 -20 11 -20 5 0 7 -4 4 -10 -3 -5 -1 -10 5 -10 6 0 8 -5 5 -10 -3 -6 -2
-10 3 -10 9 0 25 -37 23 -52 -1 -5 4 -8 10 -8 6 0 9 -6 6 -14 -3 -8 1 -17 9
-20 9 -3 12 -10 9 -16 -3 -5 -1 -10 5 -10 6 0 8 -5 5 -10 -3 -6 -2 -10 3 -10
6 0 15 -14 21 -32 6 -17 19 -40 28 -50 9 -10 13 -18 9 -18 -4 0 3 -15 16 -32
30 -43 57 -89 64 -110 4 -10 11 -18 16 -18 5 0 6 -5 3 -10 -3 -5 -2 -10 2 -10
5 0 17 -17 28 -37 11 -21 27 -43 35 -50 8 -7 11 -13 6 -13 -6 0 -1 -7 10 -16
10 -8 12 -13 4 -9 -8 4 -6 -1 4 -9 11 -9 16 -16 11 -16 -4 0 3 -10 16 -23 13
-13 25 -30 27 -38 2 -7 8 -15 13 -17 5 -2 9 -10 9 -18 0 -8 5 -14 10 -14 6 0
10 -7 10 -15 0 -8 4 -15 10 -15 5 0 16 -12 24 -27 8 -16 24 -38 36 -50 11 -13
18 -23 15 -23 -3 0 -1 -6 5 -12 27 -32 54 -65 73 -91 64 -84 101 -127 109
-127 4 0 8 -7 8 -15 0 -8 5 -15 10 -15 6 0 10 -7 10 -15 0 -8 6 -15 14 -15 8
0 18 -9 21 -20 3 -11 11 -20 16 -20 6 0 7 -4 4 -10 -3 -5 -2 -10 4 -10 15 0
121 -115 121 -131 0 -4 9 -11 20 -14 11 -3 20 -14 20 -23 0 -15 2 -15 10 -2 8
12 10 11 10 -7 0 -15 6 -23 17 -23 9 0 14 -3 11 -6 -5 -5 37 -54 46 -54 2 0
19 -15 38 -32 19 -18 51 -47 71 -65 20 -18 37 -37 37 -44 0 -6 6 -9 13 -6 6 2
21 -9 33 -24 11 -16 24 -26 27 -22 4 3 7 -2 8 -13 0 -10 3 -14 5 -8 3 7 21 -5
43 -27 21 -22 43 -39 49 -39 7 0 12 -5 12 -10 0 -6 11 -15 25 -22 13 -6 22
-15 19 -19 -3 -5 2 -9 10 -9 9 0 16 -5 16 -12 0 -6 3 -9 6 -6 3 3 22 -9 42
-28 20 -19 45 -37 55 -40 9 -3 17 -10 17 -16 0 -6 3 -8 6 -5 4 4 15 -3 25 -15
11 -11 19 -17 19 -12 0 5 5 1 11 -8 5 -10 16 -18 23 -18 8 0 17 -7 20 -16 3
-8 10 -12 16 -9 5 3 10 1 10 -4 0 -6 6 -11 14 -11 8 0 17 -7 20 -16 3 -8 10
-12 16 -9 5 3 10 2 10 -4 0 -5 9 -13 20 -16 11 -4 18 -11 15 -16 -3 -5 1 -6 9
-3 9 4 18 -1 22 -10 3 -9 10 -13 15 -10 5 3 9 0 9 -5 0 -6 7 -11 15 -11 8 0
15 -5 15 -11 0 -5 4 -7 10 -4 5 3 10 0 10 -7 0 -8 9 -14 21 -15 12 -1 27 -10
34 -20 7 -10 17 -15 21 -11 4 4 14 -1 23 -11 9 -11 26 -21 36 -23 11 -1 26
-11 33 -20 7 -10 19 -18 27 -18 7 0 21 -8 31 -18 10 -9 18 -16 18 -15 3 7 46
-11 46 -19 0 -5 5 -6 10 -3 6 3 10 1 10 -6 0 -7 3 -10 6 -6 4 3 13 -1 21 -9 8
-8 19 -12 24 -9 5 4 9 2 9 -4 0 -5 16 -15 35 -22 19 -7 35 -16 35 -20 0 -4 7
-10 16 -13 9 -4 13 -2 8 5 -4 7 7 2 24 -11 16 -12 35 -20 40 -16 6 3 14 1 18
-5 5 -8 3 -9 -6 -4 -9 5 -11 4 -6 -4 4 -6 12 -8 18 -5 6 4 13 1 17 -5 4 -6 18
-14 32 -16 13 -3 25 -9 27 -15 2 -6 8 -8 13 -4 5 3 9 0 9 -6 0 -6 4 -8 10 -5
5 3 10 2 10 -4 0 -6 7 -8 15 -5 8 4 15 1 15 -6 0 -6 4 -9 9 -5 5 3 17 -2 25
-11 9 -8 16 -12 16 -8 0 3 7 1 15 -6 8 -6 18 -9 24 -6 5 3 11 2 13 -3 1 -5 10
-11 18 -13 8 -2 18 -7 21 -11 3 -5 15 -10 25 -12 10 -2 20 -4 22 -5 1 -2 7 -4
12 -5 6 -1 12 -4 15 -5 3 -1 8 -3 13 -4 4 -1 17 -7 29 -14 13 -7 23 -11 23 -8
0 3 12 -1 27 -9 15 -8 30 -12 35 -9 4 3 8 0 8 -6 0 -6 4 -8 10 -5 5 3 10 1 10
-5 0 -6 4 -9 9 -6 5 3 21 -1 37 -9 15 -7 31 -12 36 -9 4 3 8 0 8 -5 0 -6 10
-11 23 -11 12 -1 33 -7 46 -14 14 -8 32 -11 40 -8 8 3 12 1 8 -5 -4 -6 3 -11
16 -11 30 0 51 -5 58 -14 3 -5 17 -9 32 -10 15 -1 27 -6 27 -11 0 -4 4 -6 9
-2 5 3 13 1 16 -5 5 -8 12 -7 23 2 13 11 14 11 7 -1 -6 -11 -3 -13 13 -9 12 4
20 2 16 -3 -3 -5 4 -9 15 -9 11 0 22 -4 25 -8 3 -5 15 -8 28 -7 13 1 29 -2 35
-7 7 -6 20 -8 28 -4 8 3 15 2 15 -3 0 -5 11 -7 25 -6 14 2 25 -1 25 -6 0 -4 6
-6 14 -3 8 3 17 0 21 -6 5 -8 11 -7 23 2 12 10 14 10 8 1 -5 -10 4 -13 33 -13
23 0 41 -4 41 -8 0 -5 6 -9 13 -10 6 0 29 -2 50 -3 20 -1 37 -7 37 -12 0 -5 7
-4 15 3 12 10 16 9 20 -2 4 -9 20 -13 45 -12 22 0 40 -3 40 -8 0 -5 9 -7 19
-3 11 3 22 2 25 -3 3 -5 21 -7 40 -6 21 2 36 -1 36 -8 0 -7 5 -6 15 2 8 7 15
8 15 3 0 -11 0 -11 88 -15 34 -1 62 -7 62 -11 0 -5 7 -4 16 4 12 10 17 10 23
0 5 -7 31 -13 59 -14 28 -2 48 1 46 5 -6 10 26 -2 43 -15 9 -6 13 -5 13 3 0
10 3 10 14 1 11 -9 15 -9 19 1 4 10 6 10 6 -1 1 -11 4 -11 16 -1 12 10 15 10
15 0 0 -10 3 -10 14 -1 11 9 15 9 19 -1 4 -10 6 -10 6 1 1 11 4 11 16 1 8 -7
15 -8 15 -3 0 5 7 10 15 10 8 0 15 -4 15 -8 0 -4 8 -8 18 -8 9 -1 24 -2 32 -2
8 -1 26 1 40 5 15 4 20 4 13 -1 -14 -10 111 -8 127 2 6 4 17 1 25 -5 11 -9 15
-9 15 -1 0 6 5 11 11 11 5 0 8 -3 6 -7 -3 -5 15 -8 39 -8 24 0 44 4 44 9 0 5
3 6 7 3 3 -4 12 -2 20 4 10 9 13 8 13 -1 0 -10 3 -10 15 0 12 10 15 10 15 0 0
-10 3 -10 15 0 12 10 15 10 15 0 0 -9 4 -9 17 1 14 12 15 12 9 1 -7 -11 -4
-12 13 -3 16 9 21 9 21 0 0 -8 4 -8 15 1 12 10 15 10 15 -1 0 -9 3 -10 8 -3 9
13 54 26 46 13 -3 -5 0 -9 5 -9 6 0 11 4 11 8 0 4 15 6 34 4 18 -2 37 1 40 7
5 8 13 8 27 1 10 -6 19 -7 19 -2 0 4 18 8 40 7 22 -1 40 3 40 7 0 4 5 8 11 8
5 0 7 -5 3 -12 -5 -7 -3 -8 7 -2 8 5 21 9 29 9 8 0 21 4 28 8 7 5 12 3 12 -4
0 -8 4 -8 13 -1 16 14 49 18 65 9 7 -5 12 -3 12 4 0 7 3 9 6 6 4 -3 16 -1 27
4 15 8 22 8 28 -2 7 -11 9 -11 9 -1 0 8 9 12 23 10 12 -2 27 4 34 12 9 11 12
11 13 2 0 -10 5 -10 20 -2 11 6 20 7 20 3 0 -4 5 -1 10 7 9 13 10 13 10 0 0
-13 1 -13 10 0 7 11 10 11 10 2 0 -7 5 -10 10 -7 6 4 8 10 6 14 -3 4 1 8 9 8
8 0 15 -5 15 -10 0 -5 6 -4 13 2 8 6 17 8 20 4 4 -3 7 -2 7 4 0 5 16 9 36 8
19 0 38 3 40 7 3 4 15 8 28 8 12 0 26 3 29 7 4 3 24 8 45 10 20 2 39 8 40 13
2 6 8 10 13 10 6 0 7 -6 3 -12 -6 -10 -4 -10 7 0 7 6 23 12 36 12 13 0 23 4
23 9 0 5 11 8 25 6 14 -1 25 2 25 8 0 6 3 7 7 4 3 -4 13 -1 21 6 11 8 14 8 9
0 -4 -6 10 -3 30 7 21 10 41 16 45 13 5 -2 8 0 8 6 0 5 8 8 18 6 9 -1 22 2 29
7 7 5 17 7 23 3 5 -3 10 -2 10 2 0 5 12 10 27 11 15 1 31 9 36 18 5 10 16 13
29 8 15 -4 18 -3 13 7 -6 9 -3 11 8 6 10 -3 17 -3 17 1 0 4 9 8 21 9 12 1 39
11 60 21 21 11 39 15 39 10 0 -5 7 -3 15 6 9 8 31 18 50 22 19 3 35 11 35 16
0 6 7 8 15 4 8 -3 15 -1 15 5 0 6 5 7 10 4 6 -3 10 -1 10 5 0 6 5 8 10 5 6 -3
10 -1 10 5 0 6 4 9 8 6 5 -3 23 4 40 14 20 13 32 15 32 8 0 -7 7 -3 15 8 8 10
15 15 15 10 0 -5 7 -2 16 5 9 7 23 14 32 15 8 2 18 6 21 11 3 4 12 8 19 9 29
2 33 5 26 16 -5 8 -2 9 10 5 10 -4 19 -1 22 8 4 8 10 12 15 9 5 -3 22 4 38 15
16 12 36 21 45 21 9 0 16 5 16 12 0 6 3 8 6 5 4 -3 16 -1 28 5 11 7 24 11 29
10 4 -1 7 3 7 9 0 5 5 7 10 4 6 -3 10 1 10 9 0 10 6 13 15 10 8 -4 15 -1 15 6
0 6 5 8 10 5 6 -3 10 -2 10 4 0 5 14 12 30 16 17 4 30 11 30 16 0 5 7 9 15 9
8 0 15 5 15 11 0 5 4 8 9 5 5 -3 14 1 21 9 7 8 16 12 21 9 5 -3 9 -1 9 5 0 6
11 13 25 17 14 3 25 10 25 15 0 5 7 9 15 9 8 0 15 5 15 12 0 6 3 8 7 5 3 -4
21 5 40 19 18 14 33 21 33 17 0 -4 5 0 11 10 6 9 14 15 20 12 5 -4 12 0 15 9
3 9 12 12 21 9 10 -4 14 -2 10 4 -4 6 1 17 10 24 14 12 16 12 8 -1 -6 -11 -3
-10 12 2 11 10 23 18 28 18 4 0 16 10 26 22 11 11 19 17 19 12 0 -5 4 -4 8 1
4 6 28 24 54 40 27 17 48 33 48 38 0 4 7 7 15 7 8 0 15 5 15 10 0 6 7 10 15
10 8 0 20 9 27 20 7 11 18 20 24 20 6 0 27 15 47 33 57 51 67 58 67 50 0 -4 7
3 16 15 8 12 20 19 26 16 6 -4 9 -3 6 2 -6 11 28 45 36 37 3 -4 6 -1 6 5 0 7
7 12 16 12 8 0 12 5 9 10 -3 6 -1 10 6 10 6 0 34 22 60 49 27 28 49 47 49 43
1 -4 9 3 19 15 10 12 21 20 24 17 3 -3 8 4 12 15 3 12 14 21 22 21 9 0 13 3
10 7 -4 3 5 15 20 25 16 10 24 18 20 18 -8 0 26 34 78 77 17 14 24 22 16 17
-9 -5 -12 -3 -7 4 4 7 14 12 23 12 9 0 14 3 11 6 -7 6 34 52 43 47 3 -1 12 9
19 22 7 14 19 25 27 25 7 0 12 3 11 8 -3 14 14 42 22 37 5 -3 11 4 15 15 4 11
11 17 17 14 8 -5 9 -1 5 10 -4 9 -3 15 1 13 4 -3 13 1 20 9 7 8 11 14 8 14 -2
0 8 13 22 28 15 16 43 48 62 71 19 24 41 49 48 56 6 8 12 16 12 19 0 4 12 19
26 35 14 16 26 33 26 38 0 4 9 14 19 21 11 7 19 19 19 26 0 8 7 17 16 20 8 3
13 10 10 15 -3 5 1 12 10 15 9 4 14 9 11 12 -3 3 6 17 20 30 14 13 23 24 19
24 -4 0 4 15 18 33 14 19 23 37 19 40 -3 4 -2 7 4 7 11 0 83 103 83 118 0 5 9
17 20 27 11 10 17 22 14 26 -3 5 0 9 6 9 6 0 8 5 5 10 -3 6 -1 10 5 10 6 0 16
14 21 30 6 17 15 30 20 30 5 0 9 7 9 15 0 8 11 31 25 51 14 20 25 43 25 50 0
8 5 14 11 14 5 0 7 5 4 10 -3 6 -1 10 5 10 6 0 8 5 5 10 -3 6 2 10 12 10 15 0
16 2 3 10 -8 5 -10 10 -4 10 13 0 56 79 49 90 -3 4 2 11 11 14 8 3 12 10 9 16
-3 5 -1 10 5 10 6 0 9 4 5 9 -3 5 1 16 9 24 8 8 12 17 9 21 -4 3 -1 6 5 6 7 0
12 9 12 20 0 11 3 20 8 20 9 0 32 49 32 71 0 9 7 22 15 29 8 7 12 16 9 21 -3
5 0 9 6 9 6 0 9 4 5 9 -3 5 -1 12 5 16 6 4 8 11 5 16 -4 5 -2 9 4 9 6 0 7 7 4
17 -4 11 -3 14 5 9 7 -4 12 -2 12 6 0 7 7 26 15 41 10 19 10 26 2 22 -7 -4 -3
1 7 9 15 12 16 16 5 16 -10 1 -9 3 4 11 9 6 15 14 12 20 -4 5 -1 9 5 9 6 0 8
5 5 10 -3 6 -1 10 6 10 8 0 8 4 -1 15 -9 10 -9 15 -1 15 6 0 11 7 11 15 0 8 4
15 9 15 6 0 8 9 6 20 -2 11 0 20 5 20 5 0 12 16 16 35 3 19 10 35 15 35 5 0 6
7 3 15 -4 8 -1 15 6 15 6 0 9 4 5 9 -3 5 -1 12 5 16 6 4 8 11 5 16 -4 5 -1 9
5 9 6 0 9 4 5 9 -6 10 14 62 28 72 5 4 4 10 -3 14 -10 6 -9 9 0 15 7 4 13 21
13 38 1 17 5 28 9 26 7 -5 13 27 9 49 0 4 3 7 7 7 4 0 9 12 10 27 1 15 8 31
15 36 9 7 9 10 -1 14 -10 4 -9 9 4 24 9 10 14 19 9 19 -4 0 -1 8 6 17 12 15
12 16 -1 8 -12 -7 -13 -6 -3 6 7 9 14 24 16 35 1 10 7 25 11 33 6 10 5 12 -2
7 -7 -4 -12 -2 -12 3 0 6 4 11 9 11 6 0 8 9 6 20 -2 11 1 20 7 20 5 0 8 6 5
14 -3 7 0 19 6 26 9 10 9 11 -3 5 -12 -6 -13 -5 -2 6 6 7 12 22 12 34 0 12 6
27 13 34 10 11 10 13 0 7 -15 -9 -18 10 -3 19 6 4 8 11 5 16 -4 5 0 9 7 9 9 0
9 3 -2 10 -8 5 -10 10 -5 10 6 0 11 8 12 18 3 47 8 72 16 72 5 0 4 6 -2 14 -9
10 -9 16 -1 21 6 4 10 14 8 23 -1 10 1 22 4 28 4 6 8 28 10 48 1 21 6 40 10
42 4 3 4 14 -2 24 -7 13 -6 22 3 32 9 8 11 21 7 33 -8 22 -2 46 14 58 7 4 8
10 1 15 -13 9 -16 42 -4 42 5 0 8 3 8 8 -1 4 0 9 1 12 6 17 5 78 -2 92 -5 10
-4 19 2 23 6 4 10 14 8 23 -1 10 1 23 5 30 5 7 3 12 -4 12 -8 0 -8 4 -1 13 7
8 7 18 2 27 -5 8 -6 18 -3 24 13 20 23 147 11 140 -5 -3 -8 0 -8 5 0 6 5 11
11 11 8 0 8 4 0 14 -6 7 -9 20 -6 28 9 22 11 187 3 181 -5 -2 -8 1 -8 6 0 6 5
11 11 11 8 0 8 4 0 13 -6 8 -8 25 -3 43 9 34 8 107 -2 122 -3 6 0 13 6 15 10
4 10 6 0 6 -7 1 -10 6 -7 11 3 6 0 10 -7 10 -9 0 -9 3 2 10 11 7 11 10 2 10
-10 0 -10 5 -2 20 8 14 8 20 0 20 -8 0 -8 6 0 20 8 15 8 20 -1 20 -8 0 -8 4 1
15 7 9 8 15 2 15 -11 0 -22 68 -11 72 4 2 1 20 -6 41 -7 20 -10 37 -6 37 4 0
7 9 7 20 0 11 -5 20 -10 20 -5 0 -6 3 -3 7 4 3 2 12 -4 20 -8 9 -8 13 -1 13 7
0 8 10 3 28 -4 15 -6 33 -4 40 3 6 1 12 -4 12 -4 0 -8 10 -9 23 -3 80 -9 117
-18 117 -6 0 -4 5 4 10 12 8 12 10 1 10 -9 0 -12 8 -9 25 3 13 1 22 -3 19 -5
-3 -9 0 -9 5 0 6 5 11 11 11 8 0 7 5 -1 16 -12 13 -20 48 -23 92 0 6 -4 12 -9
12 -4 0 -8 5 -8 11 0 5 6 7 13 3 8 -6 8 -3 -1 9 -8 9 -11 21 -7 27 3 5 1 10
-4 10 -6 0 -11 5 -11 11 0 5 6 7 13 3 9 -6 9 -5 0 8 -7 8 -10 18 -6 21 3 4 2
7 -3 7 -5 0 -11 11 -12 26 -1 14 -7 34 -12 45 -8 13 -8 19 0 19 7 0 7 6 0 21
-7 11 -9 27 -6 35 3 9 1 12 -4 9 -6 -3 -11 -3 -11 2 -1 4 -3 24 -5 43 -2 19
-9 37 -14 38 -6 2 -8 8 -4 13 3 5 -1 23 -10 39 -8 17 -10 27 -4 24 5 -4 4 4
-3 17 -7 13 -12 28 -11 33 2 4 -3 14 -9 22 -6 8 -8 14 -4 14 4 0 2 6 -4 13 -6
8 -8 17 -4 20 3 4 2 7 -4 7 -5 0 -10 6 -10 13 -1 25 -12 66 -22 85 -6 11 -7
22 -4 26 3 3 1 6 -4 6 -6 0 -14 18 -18 40 -4 22 -10 38 -15 35 -4 -3 -6 4 -3
15 3 12 0 20 -7 20 -7 0 -10 7 -6 15 3 8 1 15 -4 15 -6 0 -9 3 -8 8 1 8 -9 39
-23 64 -5 10 -9 24 -9 33 0 8 -9 30 -19 49 -11 19 -17 37 -14 40 4 3 1 6 -6 6
-8 0 -11 7 -7 15 3 8 1 15 -4 15 -6 0 -10 9 -10 20 0 11 -7 23 -15 26 -8 4
-12 10 -9 15 3 5 2 15 -3 22 -4 6 -8 19 -10 27 -1 8 -7 16 -13 18 -5 2 -8 8
-4 13 3 5 0 9 -6 9 -6 0 -9 4 -6 9 4 5 1 11 -4 13 -6 2 -12 13 -13 26 0 12 -5
22 -9 22 -4 0 -8 8 -8 19 0 10 -7 24 -15 31 -8 7 -12 16 -9 21 3 5 1 9 -3 9
-5 0 -15 17 -22 37 -8 21 -20 43 -28 51 -7 7 -11 18 -8 23 4 5 1 9 -4 9 -6 0
-11 8 -11 18 0 10 -9 25 -20 35 -12 10 -18 22 -15 27 3 6 1 10 -5 10 -6 0 -8
5 -5 10 3 6 1 10 -5 10 -7 0 -10 7 -6 15 3 8 2 14 -2 12 -4 -1 -7 1 -7 4 0 4
-7 15 -16 25 -9 11 -20 29 -23 42 -4 12 -12 22 -17 22 -6 0 -7 5 -4 10 3 6 1
10 -4 10 -6 0 -11 7 -11 15 0 8 -5 15 -11 15 -5 0 -7 5 -4 10 3 6 1 10 -5 10
-6 0 -8 5 -5 10 3 6 1 10 -5 10 -6 0 -8 5 -5 10 3 6 -1 13 -9 16 -9 3 -16 12
-16 20 0 8 -5 14 -11 14 -5 0 -8 4 -5 9 3 5 -1 11 -9 15 -8 3 -15 12 -15 19 0
8 -7 20 -15 27 -8 7 -13 16 -10 20 3 4 -2 11 -11 14 -9 4 -14 9 -11 13 4 3 -1
13 -11 22 -9 9 -23 28 -31 44 -8 15 -18 27 -23 27 -5 0 -6 5 -3 10 3 6 -1 13
-9 16 -9 3 -16 12 -16 20 0 8 -4 14 -8 14 -5 0 -15 12 -23 28 -8 15 -22 34
-31 43 -10 9 -18 19 -18 23 0 6 -23 35 -47 61 -7 7 -9 15 -6 19 4 3 -2 6 -12
6 -10 0 -15 3 -12 7 4 3 -8 20 -26 36 -17 17 -25 26 -17 22 13 -8 13 -7 0 11
-8 10 -25 27 -37 37 -13 10 -23 25 -23 33 0 8 -3 14 -7 14 -5 0 -19 10 -33 21
-14 11 -18 17 -10 13 8 -5 4 6 -10 23 -14 17 -27 29 -30 27 -3 -1 -17 12 -30
29 -55 70 -83 97 -93 90 -5 -3 -7 -1 -4 4 4 6 -13 29 -38 52 -25 23 -45 45
-46 49 -1 13 -80 75 -94 75 -8 0 -12 4 -9 9 3 4 -9 21 -27 36 -18 15 -43 37
-56 49 -12 13 -39 34 -59 48 -20 14 -33 25 -29 25 4 0 -12 14 -36 32 -24 17
-51 41 -61 52 -10 12 -17 17 -18 13 0 -4 -12 4 -27 18 -16 14 -35 32 -44 40
-9 8 -20 15 -26 15 -6 0 -14 7 -17 16 -3 8 -10 13 -15 10 -5 -4 -11 -3 -13 1
-2 5 -16 19 -32 33 -16 14 -26 18 -22 10 4 -8 -1 -5 -11 7 -10 12 -24 23 -32
25 -8 2 -27 16 -43 31 -15 15 -28 25 -28 22 0 -4 -12 3 -26 14 -15 11 -30 18
-35 15 -5 -3 -8 0 -7 8 2 7 -3 12 -9 10 -7 -1 -13 2 -13 8 0 5 -7 10 -15 10
-8 0 -15 5 -15 10 0 6 -7 10 -15 10 -8 0 -15 5 -15 11 0 5 -4 7 -10 4 -5 -3
-10 -1 -10 5 0 6 -4 8 -10 5 -5 -3 -10 -1 -10 4 0 6 -7 11 -15 11 -8 0 -15 4
-15 10 0 5 -11 12 -24 16 -14 3 -27 12 -30 20 -3 8 -14 14 -25 14 -11 0 -27 7
-35 16 -9 8 -16 12 -16 7 0 -4 -5 0 -11 10 -6 9 -14 15 -20 12 -5 -4 -9 -1 -9
5 0 6 -4 9 -9 5 -5 -3 -16 2 -24 10 -9 8 -23 15 -31 15 -9 0 -16 6 -16 13 0 8
-4 7 -10 -3 -6 -10 -10 -11 -10 -3 0 15 -55 45 -64 36 -3 -4 -6 2 -6 12 0 10
-3 16 -6 12 -8 -8 -64 13 -64 25 0 5 -4 6 -10 3 -5 -3 -10 -1 -10 5 0 7 -7 10
-15 6 -8 -3 -15 -1 -15 4 0 9 -43 26 -47 19 -1 -2 -8 5 -16 15 -8 10 -19 16
-24 13 -6 -4 -13 0 -17 8 -3 8 -11 12 -19 9 -8 -3 -20 2 -27 10 -7 9 -16 14
-20 11 -4 -3 -13 2 -20 10 -7 8 -18 15 -25 15 -7 0 -30 8 -51 17 -22 9 -42 16
-46 15 -5 -1 -8 3 -8 9 0 6 -6 9 -14 6 -8 -3 -16 -2 -18 3 -2 4 -14 10 -28 12
-14 1 -31 9 -39 16 -11 11 -15 11 -22 1 -6 -10 -9 -10 -15 4 -3 9 -10 14 -15
11 -5 -3 -9 -1 -9 5 0 6 -7 8 -15 5 -8 -4 -15 -1 -15 5 0 6 -6 8 -14 5 -7 -3
-20 1 -27 9 -8 7 -25 13 -38 12 -12 -1 -25 4 -28 12 -3 7 -16 13 -28 13 -13 0
-27 5 -30 10 -4 6 -10 8 -15 5 -5 -3 -11 -1 -15 4 -3 6 -12 8 -20 4 -8 -3 -15
0 -15 6 0 6 -11 11 -25 11 -14 0 -25 4 -25 8 0 4 -8 8 -17 9 -38 3 -58 8 -64
17 -4 4 -21 9 -38 10 -17 0 -31 4 -31 9 0 4 -4 6 -9 2 -5 -3 -12 -1 -16 5 -4
6 -11 8 -16 5 -5 -4 -9 0 -9 7 0 9 -3 9 -10 -2 -5 -8 -10 -10 -10 -4 0 10 -12
14 -52 15 -10 0 -18 5 -18 10 0 6 -9 7 -21 4 -13 -4 -19 -3 -16 3 4 5 -4 8
-18 6 -14 -1 -25 3 -25 9 0 5 -3 7 -7 4 -3 -4 -13 -1 -21 6 -13 10 -14 9 -7
-3 6 -12 5 -12 -5 -3 -7 6 -19 9 -26 6 -8 -3 -14 1 -14 8 0 11 -3 11 -10 -1
-5 -8 -10 -10 -10 -4 0 7 -7 15 -16 18 -10 4 -13 2 -8 -7 5 -8 2 -7 -9 2 -9 7
-17 10 -17 6 0 -4 -8 -1 -17 6 -15 12 -16 12 -8 -1 8 -13 7 -13 -8 -1 -9 7
-17 10 -17 6 0 -4 -7 -2 -15 5 -11 9 -15 9 -15 1 0 -7 -10 -5 -27 6 -17 11
-24 13 -19 5 7 -12 4 -12 -14 -2 -12 6 -28 9 -36 6 -8 -3 -14 -1 -14 4 0 5 -7
7 -15 4 -8 -4 -15 -1 -15 6 0 10 -3 10 -15 0 -12 -10 -15 -10 -15 0 0 8 -3 10
-7 7 -3 -4 -12 -2 -20 4 -10 9 -13 8 -13 -1 0 -10 -3 -10 -15 0 -12 10 -15 10
-15 -1 0 -10 -3 -10 -8 -3 -4 6 -15 10 -24 8 -10 -1 -18 3 -18 9 0 7 -5 5 -10
-3 -5 -8 -10 -10 -10 -4 0 9 -31 14 -107 17 -7 0 -13 5 -13 10 0 6 -5 6 -12 1
-16 -12 -39 -11 -58 1 -20 12 -63 12 -72 0 -5 -6 -12 -4 -18 5 -9 13 -10 13
-10 0 0 -13 -1 -13 -10 0 -5 8 -10 11 -10 7 0 -4 -9 -3 -21 3 -15 9 -24 8 -35
-1 -9 -7 -14 -7 -14 -1 0 11 -25 10 -36 -1 -4 -3 -15 -2 -25 4 -13 7 -19 6
-19 -1 0 -7 -7 -7 -22 1 -24 13 -306 20 -286 7 6 -3 0 -5 -15 -5 -14 1 -23 5
-20 10 2 4 -1 7 -6 7 -6 0 -11 -4 -11 -8 0 -11 -54 -9 -62 3 -5 6 -8 5 -8 -3z"/>
</g>
</svg>
